<svg width="60" height="60" viewBox="0 0 60 60" xmlns="http://www.w3.org/2000/svg">
  <defs>
    <linearGradient id="bananaGradient" x1="0%" y1="0%" x2="100%" y2="100%">
      <stop offset="0%" style="stop-color:#FFE135;stop-opacity:1" />
      <stop offset="50%" style="stop-color:#FFC107;stop-opacity:1" />
      <stop offset="100%" style="stop-color:#FF9800;stop-opacity:1" />
    </linearGradient>
    <filter id="glow">
      <feGaussianBlur stdDeviation="3" result="coloredBlur"/>
      <feMerge> 
        <feMergeNode in="coloredBlur"/>
        <feMergeNode in="SourceGraphic"/>
      </feMerge>
    </filter>
  </defs>
  
  <!-- Banana body -->
  <path d="M15 45 Q20 10, 45 15 Q50 20, 45 25 Q40 30, 35 35 Q30 40, 25 42 Q20 44, 15 45 Z" 
        fill="url(#bananaGradient)" 
        stroke="#E65100" 
        stroke-width="2" 
        filter="url(#glow)"/>
  
  <!-- Banana spots -->
  <ellipse cx="25" cy="25" rx="3" ry="2" fill="#D84315" opacity="0.6"/>
  <ellipse cx="35" cy="20" rx="2" ry="3" fill="#D84315" opacity="0.6"/>
  <ellipse cx="30" cy="35" rx="2.5" ry="2" fill="#D84315" opacity="0.6"/>
  
  <!-- Banana tip -->
  <circle cx="45" cy="15" r="3" fill="#8BC34A" stroke="#4CAF50" stroke-width="1"/>
  
  <!-- Pointer arrow -->
  <path d="M45 15 L52 8 L55 11 L48 18 Z" fill="#FF5722" stroke="#D84315" stroke-width="1"/>
  
  <!-- Sparkle effects -->
  <circle cx="20" cy="20" r="1" fill="#FFF" opacity="0.8">
    <animate attributeName="opacity" values="0.8;0.3;0.8" dur="1.5s" repeatCount="indefinite"/>
  </circle>
  <circle cx="40" cy="30" r="1.5" fill="#FFF" opacity="0.6">
    <animate attributeName="opacity" values="0.6;0.2;0.6" dur="2s" repeatCount="indefinite"/>
  </circle>
  <circle cx="30" cy="15" r="1" fill="#FFF" opacity="0.7">
    <animate attributeName="opacity" values="0.7;0.1;0.7" dur="1.8s" repeatCount="indefinite"/>
  </circle>
</svg>